<svg xmlns="http://www.w3.org/2000/svg" width="369" height="449" viewBox="0 0 369 449" version="1.1"><path d="M 197.235 350.033 C 195.990 350.535, 194.542 352.075, 194.018 353.453 C 193.475 354.882, 193.158 368.218, 193.282 384.445 C 193.480 410.286, 193.666 413.095, 195.286 414.715 C 196.921 416.349, 199.607 416.500, 227.001 416.500 C 254.396 416.500, 257.080 416.349, 258.715 414.715 C 260.349 413.080, 260.500 410.397, 260.500 383.001 C 260.500 355.610, 260.349 352.921, 258.715 351.286 C 257.094 349.664, 254.300 349.483, 228.215 349.310 C 212.422 349.206, 198.481 349.531, 197.235 350.033" stroke="none" fill="#d970d6" fill-rule="evenodd"/><path d="M 0 223.035 C 0 443.627, 0.021 446.059, 1.944 445.030 C 3.276 444.317, 61.595 444.070, 186.944 444.245 L 370 444.500 370 222.250 L 370 0 185 0 L 0 0 0 223.035 M 0.491 223.500 C 0.491 346.150, 0.608 396.474, 0.750 335.330 C 0.892 274.187, 0.892 173.837, 0.750 112.330 C 0.608 50.824, 0.491 100.850, 0.491 223.500 M 31.655 24.829 C 30.191 26.446, 30 30.181, 30 57.174 C 30 85.467, 30.133 87.811, 31.829 89.345 C 33.446 90.809, 37.181 91, 64.174 91 C 92.467 91, 94.811 90.867, 96.345 89.171 C 97.809 87.554, 98 83.819, 98 56.826 C 98 28.533, 97.867 26.189, 96.171 24.655 C 94.554 23.191, 90.819 23, 63.826 23 C 35.533 23, 33.189 23.133, 31.655 24.829 M 112.655 24.829 C 111.191 26.446, 111 30.181, 111 57.174 C 111 85.467, 111.133 87.811, 112.829 89.345 C 114.446 90.809, 118.181 91, 145.174 91 C 173.467 91, 175.811 90.867, 177.345 89.171 C 178.809 87.554, 179 83.819, 179 56.826 C 179 28.533, 178.867 26.189, 177.171 24.655 C 175.554 23.191, 171.819 23, 144.826 23 C 116.533 23, 114.189 23.133, 112.655 24.829 M 194.655 24.829 C 193.191 26.446, 193 30.181, 193 57.174 C 193 85.467, 193.133 87.811, 194.829 89.345 C 196.446 90.809, 200.181 91, 227.174 91 C 255.467 91, 257.811 90.867, 259.345 89.171 C 260.809 87.554, 261 83.819, 261 56.826 C 261 28.533, 260.867 26.189, 259.171 24.655 C 257.554 23.191, 253.819 23, 226.826 23 C 198.533 23, 196.189 23.133, 194.655 24.829 M 275.655 24.829 C 274.191 26.446, 274 30.181, 274 57.174 C 274 85.467, 274.133 87.811, 275.829 89.345 C 277.446 90.809, 281.181 91, 308.174 91 C 336.467 91, 338.811 90.867, 340.345 89.171 C 341.809 87.554, 342 83.819, 342 56.826 C 342 28.533, 341.867 26.189, 340.171 24.655 C 338.554 23.191, 334.819 23, 307.826 23 C 279.533 23, 277.189 23.133, 275.655 24.829 M 31.655 105.829 C 30.191 107.446, 30 111.181, 30 138.174 C 30 166.467, 30.133 168.811, 31.829 170.345 C 33.446 171.809, 37.181 172, 64.174 172 C 92.467 172, 94.811 171.867, 96.345 170.171 C 97.809 168.554, 98 164.819, 98 137.826 C 98 109.533, 97.867 107.189, 96.171 105.655 C 94.554 104.191, 90.819 104, 63.826 104 C 35.533 104, 33.189 104.133, 31.655 105.829 M 112.655 105.829 C 111.191 107.446, 111 111.181, 111 138.174 C 111 166.467, 111.133 168.811, 112.829 170.345 C 114.446 171.809, 118.181 172, 145.174 172 C 173.467 172, 175.811 171.867, 177.345 170.171 C 178.809 168.554, 179 164.819, 179 137.826 C 179 109.533, 178.867 107.189, 177.171 105.655 C 175.554 104.191, 171.819 104, 144.826 104 C 116.533 104, 114.189 104.133, 112.655 105.829 M 194.655 105.829 C 193.191 107.446, 193 111.181, 193 138.174 C 193 166.467, 193.133 168.811, 194.829 170.345 C 196.446 171.809, 200.181 172, 227.174 172 C 255.467 172, 257.811 171.867, 259.345 170.171 C 260.809 168.554, 261 164.819, 261 137.826 C 261 109.533, 260.867 107.189, 259.171 105.655 C 257.554 104.191, 253.819 104, 226.826 104 C 198.533 104, 196.189 104.133, 194.655 105.829 M 276 106 C 274.089 107.911, 274 109.333, 274 138 C 274 166.667, 274.089 168.089, 276 170 C 277.911 171.911, 279.333 172, 308 172 C 336.667 172, 338.089 171.911, 340 170 C 341.911 168.089, 342 166.667, 342 138 C 342 109.333, 341.911 107.911, 340 106 C 338.089 104.089, 336.667 104, 308 104 C 279.333 104, 277.911 104.089, 276 106 M 31.655 187.829 C 30.191 189.446, 30 193.181, 30 220.174 C 30 248.467, 30.133 250.811, 31.829 252.345 C 33.446 253.809, 37.181 254, 64.174 254 C 92.467 254, 94.811 253.867, 96.345 252.171 C 97.809 250.554, 98 246.819, 98 219.826 C 98 191.533, 97.867 189.189, 96.171 187.655 C 94.554 186.191, 90.819 186, 63.826 186 C 35.533 186, 33.189 186.133, 31.655 187.829 M 112.655 187.829 C 111.191 189.446, 111 193.181, 111 220.174 C 111 248.467, 111.133 250.811, 112.829 252.345 C 114.446 253.809, 118.181 254, 145.174 254 C 173.467 254, 175.811 253.867, 177.345 252.171 C 178.809 250.554, 179 246.819, 179 219.826 C 179 191.533, 178.867 189.189, 177.171 187.655 C 175.554 186.191, 171.819 186, 144.826 186 C 116.533 186, 114.189 186.133, 112.655 187.829 M 194.655 187.829 C 193.191 189.446, 193 193.181, 193 220.174 C 193 248.467, 193.133 250.811, 194.829 252.345 C 196.446 253.809, 200.181 254, 227.174 254 C 255.467 254, 257.811 253.867, 259.345 252.171 C 260.809 250.554, 261 246.819, 261 219.826 C 261 191.533, 260.867 189.189, 259.171 187.655 C 257.554 186.191, 253.819 186, 226.826 186 C 198.533 186, 196.189 186.133, 194.655 187.829 M 275.655 187.829 C 274.191 189.446, 274 193.181, 274 220.174 C 274 248.467, 274.133 250.811, 275.829 252.345 C 277.446 253.809, 281.181 254, 308.174 254 C 336.467 254, 338.811 253.867, 340.345 252.171 C 341.809 250.554, 342 246.819, 342 219.826 C 342 191.533, 341.867 189.189, 340.171 187.655 C 338.554 186.191, 334.819 186, 307.826 186 C 279.533 186, 277.189 186.133, 275.655 187.829 M 31.655 268.829 C 30.191 270.446, 30 274.181, 30 301.174 C 30 329.467, 30.133 331.811, 31.829 333.345 C 33.446 334.809, 37.181 335, 64.174 335 C 92.467 335, 94.811 334.867, 96.345 333.171 C 97.809 331.554, 98 327.819, 98 300.826 C 98 272.533, 97.867 270.189, 96.171 268.655 C 94.554 267.191, 90.819 267, 63.826 267 C 35.533 267, 33.189 267.133, 31.655 268.829 M 112.655 268.829 C 111.191 270.446, 111 274.181, 111 301.174 C 111 329.467, 111.133 331.811, 112.829 333.345 C 114.446 334.809, 118.181 335, 145.174 335 C 173.467 335, 175.811 334.867, 177.345 333.171 C 178.809 331.554, 179 327.819, 179 300.826 C 179 272.533, 178.867 270.189, 177.171 268.655 C 175.554 267.191, 171.819 267, 144.826 267 C 116.533 267, 114.189 267.133, 112.655 268.829 M 194.655 268.829 C 193.191 270.446, 193 274.181, 193 301.174 C 193 329.467, 193.133 331.811, 194.829 333.345 C 196.446 334.809, 200.181 335, 227.174 335 C 255.467 335, 257.811 334.867, 259.345 333.171 C 260.809 331.554, 261 327.819, 261 300.826 C 261 272.533, 260.867 270.189, 259.171 268.655 C 257.554 267.191, 253.819 267, 226.826 267 C 198.533 267, 196.189 267.133, 194.655 268.829 M 275.655 268.829 C 274.191 270.446, 274 274.181, 274 301.174 C 274 329.467, 274.133 331.811, 275.829 333.345 C 277.446 334.809, 281.181 335, 308.174 335 C 336.467 335, 338.811 334.867, 340.345 333.171 C 341.809 331.554, 342 327.819, 342 300.826 C 342 272.533, 341.867 270.189, 340.171 268.655 C 338.554 267.191, 334.819 267, 307.826 267 C 279.533 267, 277.189 267.133, 275.655 268.829 M 31.655 350.829 C 30.191 352.446, 30 356.181, 30 383.174 C 30 411.467, 30.133 413.811, 31.829 415.345 C 33.446 416.809, 37.181 417, 64.174 417 C 92.467 417, 94.811 416.867, 96.345 415.171 C 97.809 413.554, 98 409.819, 98 382.826 C 98 354.533, 97.867 352.189, 96.171 350.655 C 94.554 349.191, 90.819 349, 63.826 349 C 35.533 349, 33.189 349.133, 31.655 350.829 M 112.655 350.829 C 111.191 352.446, 111 356.181, 111 383.174 C 111 411.467, 111.133 413.811, 112.829 415.345 C 114.446 416.809, 118.181 417, 145.174 417 C 173.467 417, 175.811 416.867, 177.345 415.171 C 178.809 413.554, 179 409.819, 179 382.826 C 179 354.533, 178.867 352.189, 177.171 350.655 C 175.554 349.191, 171.819 349, 144.826 349 C 116.533 349, 114.189 349.133, 112.655 350.829 M 194.655 350.829 C 193.191 352.446, 193 356.181, 193 383.174 C 193 411.467, 193.133 413.811, 194.829 415.345 C 196.446 416.809, 200.181 417, 227.174 417 C 255.467 417, 257.811 416.867, 259.345 415.171 C 260.809 413.554, 261 409.819, 261 382.826 C 261 354.533, 260.867 352.189, 259.171 350.655 C 257.554 349.191, 253.819 349, 226.826 349 C 198.533 349, 196.189 349.133, 194.655 350.829 M 276 351 C 274.089 352.911, 274 354.333, 274 383 C 274 411.667, 274.089 413.089, 276 415 C 277.911 416.911, 279.333 417, 308 417 C 336.667 417, 338.089 416.911, 340 415 C 341.911 413.089, 342 411.667, 342 383 C 342 354.333, 341.911 352.911, 340 351 C 338.089 349.089, 336.667 349, 308 349 C 279.333 349, 277.911 349.089, 276 351" stroke="none" fill="#101827" fill-rule="evenodd"/><path d="M 197.235 350.033 C 195.990 350.535, 194.542 352.075, 194.018 353.453 C 193.475 354.882, 193.158 368.218, 193.282 384.445 C 193.480 410.286, 193.666 413.095, 195.286 414.715 C 196.921 416.349, 199.607 416.500, 227.001 416.500 C 254.396 416.500, 257.080 416.349, 258.715 414.715 C 260.349 413.080, 260.500 410.397, 260.500 383.001 C 260.500 355.610, 260.349 352.921, 258.715 351.286 C 257.094 349.664, 254.300 349.483, 228.215 349.310 C 212.422 349.206, 198.481 349.531, 197.235 350.033" stroke="none" fill="#d970d6" fill-rule="evenodd"/><path d="M 48.762 104.707 C 50.006 104.946, 51.806 104.937, 52.762 104.687 C 53.718 104.437, 52.700 104.241, 50.500 104.252 C 48.300 104.263, 47.518 104.468, 48.762 104.707 M 30.310 127.500 C 30.315 130.800, 30.502 132.029, 30.725 130.232 C 30.947 128.435, 30.943 125.735, 30.715 124.232 C 30.486 122.729, 30.304 124.200, 30.310 127.500 M 97.310 148.500 C 97.315 151.800, 97.502 153.029, 97.725 151.232 C 97.947 149.435, 97.943 146.735, 97.715 145.232 C 97.486 143.729, 97.304 145.200, 97.310 148.500 M 76.250 171.689 C 77.213 171.941, 78.787 171.941, 79.750 171.689 C 80.713 171.438, 79.925 171.232, 78 171.232 C 76.075 171.232, 75.287 171.438, 76.250 171.689 M 113.861 350.912 L 111.500 352.823 111.500 383 L 111.500 413.177 113.861 415.088 C 116.063 416.872, 118.155 417, 145 417 C 171.845 417, 173.937 416.872, 176.139 415.088 L 178.500 413.177 178.500 383 L 178.500 352.823 176.139 350.912 C 173.937 349.128, 171.845 349, 145 349 C 118.155 349, 116.063 349.128, 113.861 350.912" stroke="none" fill="#daa521" fill-rule="evenodd"/><path d="M 32 25 C 30.900 26.100, 30.030 27.563, 30.068 28.250 C 30.105 28.938, 30.602 28.535, 31.173 27.356 C 31.744 26.176, 33.176 24.744, 34.356 24.173 C 35.535 23.602, 35.938 23.105, 35.250 23.068 C 34.563 23.030, 33.100 23.900, 32 25 M 51.762 23.707 C 53.006 23.946, 54.806 23.937, 55.762 23.687 C 56.718 23.437, 55.700 23.241, 53.500 23.252 C 51.300 23.263, 50.518 23.468, 51.762 23.707 M 93.644 24.173 C 94.824 24.744, 96.256 26.176, 96.827 27.356 C 97.398 28.535, 97.895 28.938, 97.932 28.250 C 98.020 26.631, 94.369 22.980, 92.750 23.068 C 92.063 23.105, 92.465 23.602, 93.644 24.173 M 195.174 25.314 C 193.043 27.583, 193 28.217, 193 57.140 L 193 86.651 195.314 88.826 C 197.583 90.957, 198.217 91, 227.140 91 L 256.651 91 258.826 88.686 C 260.957 86.417, 261 85.783, 261 56.860 L 261 27.349 258.686 25.174 C 256.417 23.043, 255.783 23, 226.860 23 L 197.349 23 195.174 25.314 M 30.252 46.500 C 30.263 48.700, 30.468 49.482, 30.707 48.238 C 30.946 46.994, 30.937 45.194, 30.687 44.238 C 30.437 43.282, 30.241 44.300, 30.252 46.500 M 97.252 67.500 C 97.263 69.700, 97.468 70.482, 97.707 69.238 C 97.946 67.994, 97.937 66.194, 97.687 65.238 C 97.437 64.282, 97.241 65.300, 97.252 67.500 M 30.068 85.750 C 29.980 87.369, 33.631 91.020, 35.250 90.932 C 35.938 90.895, 35.535 90.398, 34.356 89.827 C 33.176 89.256, 31.744 87.824, 31.173 86.644 C 30.602 85.465, 30.105 85.063, 30.068 85.750 M 96.540 86.873 C 96.187 87.987, 94.987 89.187, 93.873 89.540 C 92.760 89.894, 92.044 90.377, 92.282 90.615 C 92.519 90.853, 93.466 90.759, 94.385 90.406 C 96.171 89.720, 98.486 86.153, 97.672 85.339 C 97.403 85.070, 96.894 85.760, 96.540 86.873 M 72.762 90.707 C 74.006 90.946, 75.806 90.937, 76.762 90.687 C 77.718 90.437, 76.700 90.241, 74.500 90.252 C 72.300 90.263, 71.518 90.468, 72.762 90.707 M 47.728 186.722 C 49.503 186.943, 52.653 186.946, 54.728 186.730 C 56.802 186.513, 55.350 186.333, 51.500 186.328 C 47.650 186.324, 45.952 186.501, 47.728 186.722 M 30.328 209.500 C 30.333 213.350, 30.513 214.802, 30.730 212.728 C 30.946 210.653, 30.943 207.503, 30.722 205.728 C 30.501 203.952, 30.324 205.650, 30.328 209.500 M 97.328 230.500 C 97.333 234.350, 97.513 235.802, 97.730 233.728 C 97.946 231.653, 97.943 228.503, 97.722 226.728 C 97.501 224.952, 97.324 226.650, 97.328 230.500 M 72.728 253.722 C 74.503 253.943, 77.653 253.946, 79.728 253.730 C 81.802 253.513, 80.350 253.333, 76.500 253.328 C 72.650 253.324, 70.952 253.501, 72.728 253.722 M 195.455 269.455 L 193 271.909 193 301 L 193 330.091 195.455 332.545 L 197.909 335 227 335 L 256.091 335 258.545 332.545 L 261 330.091 261 301 L 261 271.909 258.545 269.455 L 256.091 267 227 267 L 197.909 267 195.455 269.455 M 276.455 269.455 L 274 271.909 274 301 L 274 330.091 276.455 332.545 L 278.909 335 308 335 L 337.091 335 339.545 332.545 L 342 330.091 342 301 L 342 271.909 339.545 269.455 L 337.091 267 308 267 L 278.909 267 276.455 269.455 M 32.455 351.455 L 30 353.909 30 383 L 30 412.091 32.455 414.545 L 34.909 417 64 417 L 93.091 417 95.545 414.545 L 98 412.091 98 383 L 98 353.909 95.545 351.455 L 93.091 349 64 349 L 34.909 349 32.455 351.455" stroke="none" fill="#4781b4" fill-rule="evenodd"/><path d="M 34.235 268.014 C 30.272 269.646, 29.898 272.856, 30.207 302.644 C 30.472 328.232, 30.670 331.102, 32.286 332.716 C 33.920 334.349, 36.612 334.500, 64 334.500 C 91.398 334.500, 94.080 334.349, 95.714 332.714 C 97.349 331.080, 97.500 328.398, 97.500 301 C 97.500 273.612, 97.349 270.920, 95.716 269.286 C 94.096 267.665, 91.283 267.481, 65.216 267.291 C 49.208 267.174, 35.498 267.494, 34.235 268.014 M 113.861 268.912 L 111.500 270.823 111.500 301 L 111.500 331.177 113.861 333.088 C 116.063 334.872, 118.155 335, 145 335 C 171.845 335, 173.937 334.872, 176.139 333.088 L 178.500 331.177 178.500 301 L 178.500 270.823 176.139 268.912 C 173.937 267.128, 171.845 267, 145 267 C 118.155 267, 116.063 267.128, 113.861 268.912" stroke="none" fill="#e6e6fa" fill-rule="evenodd"/><path d="M 195.455 188.455 L 193 190.909 193 220 L 193 249.091 195.455 251.545 L 197.909 254 227 254 L 256.091 254 258.545 251.545 L 261 249.091 261 220 L 261 190.909 258.545 188.455 L 256.091 186 227 186 L 197.909 186 195.455 188.455" stroke="none" fill="#7bfc02" fill-rule="evenodd"/><path d="M 113.455 188.455 L 111 190.909 111 220 L 111 249.091 113.455 251.545 L 115.909 254 145 254 L 174.091 254 176.545 251.545 L 179 249.091 179 220 L 179 190.909 176.545 188.455 L 174.091 186 145 186 L 115.909 186 113.455 188.455" stroke="none" fill="#d57f7f" fill-rule="evenodd"/><path d="M 34.300 105.279 C 33.113 105.809, 31.714 107.425, 31.189 108.871 C 29.815 112.664, 29.690 163.838, 31.048 167.116 C 31.646 168.559, 33.280 170.262, 34.678 170.899 C 37.861 172.349, 90.430 172.195, 93.682 170.726 C 94.883 170.184, 96.292 168.561, 96.814 167.120 C 98.186 163.333, 98.308 112.157, 96.952 108.884 C 96.354 107.441, 94.725 105.740, 93.333 105.106 C 90.201 103.679, 37.540 103.834, 34.300 105.279" stroke="none" fill="#f1c40f" fill-rule="evenodd"/><path d="M 113.455 106.455 L 111 108.909 111 138 L 111 167.091 113.455 169.545 L 115.909 172 145 172 L 174.091 172 176.545 169.545 L 179 167.091 179 138 L 179 108.909 176.545 106.455 L 174.091 104 145 104 L 115.909 104 113.455 106.455" stroke="none" fill="#e67e23" fill-rule="evenodd"/><path d="M 195.455 106.455 L 193 108.909 193 138 L 193 167.091 195.455 169.545 L 197.909 172 227 172 L 256.091 172 258.545 169.545 L 261 167.091 261 138 L 261 108.909 258.545 106.455 L 256.091 104 227 104 L 197.909 104 195.455 106.455" stroke="none" fill="#e74b3c" fill-rule="evenodd"/><path d="M 276.455 25.455 L 274 27.909 274 57 L 274 86.091 276.455 88.545 L 278.909 91 308 91 L 337.091 91 339.545 88.545 L 342 86.091 342 57 L 342 27.909 339.545 25.455 L 337.091 23 308 23 L 278.909 23 276.455 25.455 M 276.455 351.455 L 274 353.909 274 383 L 274 412.091 276.455 414.545 L 278.909 417 308 417 L 337.091 417 339.545 414.545 L 342 412.091 342 383 L 342 353.909 339.545 351.455 L 337.091 349 308 349 L 278.909 349 276.455 351.455" stroke="none" fill="#9b59b6" fill-rule="evenodd"/><path d="M 34.364 24.245 C 33.189 24.772, 31.791 26.170, 31.256 27.352 C 29.837 30.490, 29.699 83.245, 31.102 86.325 C 31.717 87.675, 33.325 89.283, 34.675 89.898 C 37.748 91.298, 90.510 91.163, 93.640 89.747 C 94.817 89.215, 96.215 87.817, 96.747 86.640 C 98.163 83.510, 98.298 30.748, 96.898 27.675 C 96.283 26.325, 94.680 24.719, 93.336 24.107 C 90.286 22.718, 37.491 22.841, 34.364 24.245 M 113.861 24.912 L 111.500 26.823 111.500 57 L 111.500 87.177 113.861 89.088 C 116.063 90.872, 118.155 91, 145 91 C 171.845 91, 173.937 90.872, 176.139 89.088 L 178.500 87.177 178.500 57 L 178.500 26.823 176.139 24.912 C 173.937 23.128, 171.845 23, 145 23 C 118.155 23, 116.063 23.128, 113.861 24.912 M 34.083 187.377 C 33.001 187.859, 31.798 188.984, 31.409 189.877 C 30.156 192.753, 29.846 246.215, 31.066 249.159 C 32.987 253.797, 35.414 254.120, 65.062 253.681 C 80.153 253.458, 93.253 252.953, 94.173 252.560 C 95.093 252.167, 96.172 251.093, 96.572 250.173 C 97.838 247.255, 98.165 193.812, 96.934 190.841 C 96.326 189.373, 94.617 187.670, 93.136 187.056 C 89.919 185.724, 37.147 186.010, 34.083 187.377 M 276.455 188.455 L 274 190.909 274 220 L 274 249.091 276.455 251.545 L 278.909 254 308 254 L 337.091 254 339.545 251.545 L 342 249.091 342 220 L 342 190.909 339.545 188.455 L 337.091 186 308 186 L 278.909 186 276.455 188.455" stroke="none" fill="#88a5cb" fill-rule="evenodd"/><path d="M 194.405 25.250 L 192.500 27.500 194.750 25.595 C 195.988 24.547, 197 23.535, 197 23.345 C 197 22.545, 196.195 23.136, 194.405 25.250 M 258.500 25 C 259.495 26.100, 260.535 27, 260.810 27 C 261.085 27, 260.495 26.100, 259.500 25 C 258.505 23.900, 257.465 23, 257.190 23 C 256.915 23, 257.505 23.900, 258.500 25 M 275.494 25.006 C 272.938 27.831, 274.026 28.093, 276.714 25.301 C 277.932 24.035, 278.564 23, 278.119 23 C 277.674 23, 276.493 23.903, 275.494 25.006 M 339.286 25.301 C 340.504 26.566, 341.685 27.469, 341.911 27.307 C 342.494 26.888, 338.856 23, 337.881 23 C 337.436 23, 338.068 24.035, 339.286 25.301 M 274 86.881 C 274 87.856, 277.888 91.494, 278.307 90.911 C 278.469 90.685, 277.566 89.504, 276.301 88.286 C 275.035 87.068, 274 86.436, 274 86.881 M 339.286 88.699 C 338.068 89.965, 337.436 91, 337.881 91 C 338.856 91, 342.494 87.112, 341.911 86.693 C 341.685 86.531, 340.504 87.434, 339.286 88.699 M 194.500 89 C 195.495 90.100, 196.535 91, 196.810 91 C 197.085 91, 196.495 90.100, 195.500 89 C 194.505 87.900, 193.465 87, 193.190 87 C 192.915 87, 193.505 87.900, 194.500 89 M 258.405 89.250 L 256.500 91.500 258.750 89.595 C 260.864 87.805, 261.455 87, 260.655 87 C 260.465 87, 259.453 88.013, 258.405 89.250 M 112.405 106.250 L 110.500 108.500 112.750 106.595 C 113.987 105.547, 115 104.535, 115 104.345 C 115 103.545, 114.195 104.136, 112.405 106.250 M 176.500 106 C 177.495 107.100, 178.535 108, 178.810 108 C 179.085 108, 178.495 107.100, 177.500 106 C 176.505 104.900, 175.465 104, 175.190 104 C 174.915 104, 175.505 104.900, 176.500 106 M 194.405 106.250 L 192.500 108.500 194.750 106.595 C 196.864 104.805, 197.455 104, 196.655 104 C 196.465 104, 195.453 105.013, 194.405 106.250 M 258.500 106 C 259.495 107.100, 260.535 108, 260.810 108 C 261.085 108, 260.495 107.100, 259.500 106 C 258.505 104.900, 257.465 104, 257.190 104 C 256.915 104, 257.505 104.900, 258.500 106 M 276 106 C 274.089 107.911, 274 109.333, 274 138 C 274 166.667, 274.089 168.089, 276 170 C 277.911 171.911, 279.333 172, 308 172 C 336.667 172, 338.089 171.911, 340 170 C 341.911 168.089, 342 166.667, 342 138 C 342 109.333, 341.911 107.911, 340 106 C 338.089 104.089, 336.667 104, 308 104 C 279.333 104, 277.911 104.089, 276 106 M 112.500 170 C 113.495 171.100, 114.535 172, 114.810 172 C 115.085 172, 114.495 171.100, 113.500 170 C 112.505 168.900, 111.465 168, 111.190 168 C 110.915 168, 111.505 168.900, 112.500 170 M 176.405 170.250 L 174.500 172.500 176.750 170.595 C 178.864 168.805, 179.455 168, 178.655 168 C 178.465 168, 177.453 169.012, 176.405 170.250 M 194.500 170 C 195.495 171.100, 196.535 172, 196.810 172 C 197.085 172, 196.495 171.100, 195.500 170 C 194.505 168.900, 193.465 168, 193.190 168 C 192.915 168, 193.505 168.900, 194.500 170 M 258.405 170.250 L 256.500 172.500 258.750 170.595 C 260.864 168.805, 261.455 168, 260.655 168 C 260.465 168, 259.453 169.012, 258.405 170.250 M 31.405 188.250 L 29.500 190.500 31.750 188.595 C 33.864 186.805, 34.455 186, 33.655 186 C 33.465 186, 32.453 187.012, 31.405 188.250 M 95.500 188 C 96.495 189.100, 97.535 190, 97.810 190 C 98.085 190, 97.495 189.100, 96.500 188 C 95.505 186.900, 94.465 186, 94.190 186 C 93.915 186, 94.505 186.900, 95.500 188 M 31.500 252 C 32.495 253.100, 33.535 254, 33.810 254 C 34.085 254, 33.495 253.100, 32.500 252 C 31.505 250.900, 30.465 250, 30.190 250 C 29.915 250, 30.505 250.900, 31.500 252 M 95.405 252.250 L 93.500 254.500 95.750 252.595 C 97.864 250.805, 98.455 250, 97.655 250 C 97.465 250, 96.453 251.012, 95.405 252.250 M 194.494 269.006 C 191.938 271.831, 193.026 272.093, 195.714 269.301 C 196.932 268.035, 197.564 267, 197.119 267 C 196.674 267, 195.493 267.903, 194.494 269.006 M 258.286 269.301 C 259.504 270.566, 260.685 271.469, 260.911 271.307 C 261.494 270.888, 257.856 267, 256.881 267 C 256.436 267, 257.068 268.035, 258.286 269.301 M 275.494 269.006 C 272.938 271.831, 274.026 272.093, 276.714 269.301 C 277.932 268.035, 278.564 267, 278.119 267 C 277.674 267, 276.493 267.903, 275.494 269.006 M 339.286 269.301 C 340.504 270.566, 341.685 271.469, 341.911 271.307 C 342.494 270.888, 338.856 267, 337.881 267 C 337.436 267, 338.068 268.035, 339.286 269.301 M 193 330.881 C 193 331.856, 196.888 335.494, 197.307 334.911 C 197.469 334.685, 196.566 333.504, 195.301 332.286 C 194.035 331.068, 193 330.436, 193 330.881 M 258.286 332.699 C 257.068 333.965, 256.436 335, 256.881 335 C 257.856 335, 261.494 331.112, 260.911 330.693 C 260.685 330.531, 259.504 331.434, 258.286 332.699 M 274 330.881 C 274 331.856, 277.888 335.494, 278.307 334.911 C 278.469 334.685, 277.566 333.504, 276.301 332.286 C 275.035 331.068, 274 330.436, 274 330.881 M 339.286 332.699 C 338.068 333.965, 337.436 335, 337.881 335 C 338.856 335, 342.494 331.112, 341.911 330.693 C 341.685 330.531, 340.504 331.434, 339.286 332.699 M 31.494 351.006 C 28.938 353.831, 30.026 354.093, 32.714 351.301 C 33.932 350.035, 34.564 349, 34.119 349 C 33.674 349, 32.493 349.903, 31.494 351.006 M 95.286 351.301 C 96.504 352.566, 97.685 353.469, 97.911 353.307 C 98.494 352.888, 94.856 349, 93.881 349 C 93.436 349, 94.068 350.035, 95.286 351.301 M 30 412.881 C 30 413.856, 33.888 417.494, 34.307 416.911 C 34.469 416.685, 33.566 415.504, 32.301 414.286 C 31.035 413.068, 30 412.436, 30 412.881 M 95.286 414.699 C 94.068 415.965, 93.436 417, 93.881 417 C 94.856 417, 98.494 413.112, 97.911 412.693 C 97.685 412.531, 96.504 413.434, 95.286 414.699 M 1.750 445.079 C 0.787 445.640, -0 446.753, -0 447.552 C -0 448.819, 23.737 448.973, 184.750 448.753 C 368.749 448.501, 369.500 448.492, 369.500 446.500 C 369.500 444.508, 368.760 444.499, 186.500 444.279 C 63.430 444.130, 2.927 444.392, 1.750 445.079" stroke="none" fill="#213c31" fill-rule="evenodd"/></svg>